<svg xmlns="http://www.w3.org/2000/svg" viewBox="0 0 157 157">
  <defs>
    <style>
      .cls-1 {
        fill: #231f20;
      }
    </style>
  </defs>
  <g id="Layer_2" data-name="Layer 2">
    <g id="Layer_1-2" data-name="Layer 1">
      <path class="cls-1" d="M78.5,157A78.5,78.5,0,1,1,157,78.5,78.58876,78.58876,0,0,1,78.5,157Zm0-155A76.5,76.5,0,1,0,155,78.5,76.58616,76.58616,0,0,0,78.5,2Z"/>
      <path class="cls-1" d="M41.006,90.6709c-.627,1.35937-2.16016,5.334-.7666,9.2168l.248.69042.72754.09473c.17676.01953,4.22657.49024,9.416-3.75586a112.40841,112.40841,0,0,0,28.57519,3.78418c.40821.00586.81446.00879,1.22168.00879a113.02707,113.02707,0,0,0,27.38086-3.793c5.19141,4.24805,9.24121,3.77539,9.416,3.75586l.72559-.09473.249-.6875c1.40332-3.88476-.13477-7.86035-.76465-9.2207,5.05566-15.79394.71094-37.23828-.0293-40.61914.61035-1.29883,2.21875-5.33789.794-9.28223l-.249-.6875-.72461-.09472c-.17579-.02149-4.22657-.49219-9.417,3.75488a109.91162,109.91162,0,0,0-57.17773,0c-5.19043-4.24707-9.24316-3.77637-9.417-3.75488l-.72657.09472-.24707.69043c-1.416,3.94239.18653,7.98047.794,9.27832C40.296,53.42676,35.95617,74.875,41.006,90.6709ZM43.46692,50.168l.10058-.44336-.21484-.39941a11.37391,11.37391,0,0,1-1.08789-6.9375c1.26172.11914,3.99414.73144,7.29394,3.58691l.4961.42969.6289-.18653a107.42753,107.42753,0,0,1,57.07227,0l.62891.18653.49609-.42969c3.30566-2.86035,6.041-3.46973,7.2959-3.58789a11.321,11.321,0,0,1-1.08887,6.9375l-.21875.39844.10352.44531c.05468.23828,5.4541,24.00586.03125,40.21289l-.16407.49609.248.458a11.32474,11.32474,0,0,1,1.08887,6.93652c-1.26172-.11914-3.99414-.73144-7.2959-3.58789l-.49609-.42968-.62891.18652a108.2537,108.2537,0,0,1-28.54981,3.86035,108.42147,108.42147,0,0,1-28.52246-3.86035l-.6289-.18652-.4961.42968c-3.30371,2.8584-6.03906,3.46973-7.29394,3.58887a11.36659,11.36659,0,0,1,1.08691-6.93652l.25-.459-.165-.49511C38.02258,74.17383,43.41223,50.40625,43.46692,50.168Z"/>
      <path class="cls-1" d="M73.91809,52.48047l-.43848-2.35938c-.20117.03711-20.12012,3.96192-24.13183,24.73536l2.35742.45507C55.39953,56.17285,73.16418,52.62207,73.91809,52.48047Z"/>
      <rect class="cls-1" x="39.07239" y="111.26172" width="80.2998" height="2.40039"/>
      <path class="cls-1" d="M109.17468,89.5271l.7478-1.3667c10.12036-18.48657.08936-35.94373-.01294-36.1178l-.73486-1.24719-.73486,1.24719c-.1023.17407-10.1333,17.63123-.01294,36.1178Z"/>
    </g>
  </g>
</svg>
